<svg width="93" height="21" fill="none" xmlns="http://www.w3.org/2000/svg"><path d="M23.501 6.604a6.678 6.678 0 00-1.178.426 6.93 6.93 0 00-.874.529 4.9 4.9 0 00-.538.416l-.183.183V6.715h-2.926v14.01h2.926v-7.579c0-1.29.325-2.296.985-3.017.66-.721 1.545-1.077 2.662-1.077h1.717V6.411h-1.138c-.487 0-.975.06-1.453.193zm25.184-.194c-.488 0-.965.062-1.443.194a6.678 6.678 0 00-1.178.426 6.93 6.93 0 00-.874.529 4.9 4.9 0 00-.539.416l-.182.183V6.715h-2.926v14.01h2.926v-7.579c0-1.29.325-2.296.985-3.017.66-.721 1.544-1.077 2.662-1.077.945 0 1.747.335 2.387.996.64.66.965 1.503.965 2.51v8.168h2.926v-8.169c0-1.87-.528-3.363-1.574-4.47-1.077-1.118-2.449-1.676-4.135-1.676zm18.927 1.91l-.203-.213a5.106 5.106 0 00-.59-.467 8.75 8.75 0 00-.934-.569 5.554 5.554 0 00-1.27-.467 5.934 5.934 0 00-1.534-.193c-1.85 0-3.455.71-4.816 2.133-1.361 1.422-2.042 3.14-2.042 5.161 0 2.022.68 3.75 2.042 5.161C59.626 20.29 61.232 21 63.081 21c.813 0 1.615-.173 2.407-.518.793-.346 1.301-.63 1.545-.844.244-.223.427-.396.559-.528l.487 1.605h2.428V.285h-2.926V8.32h.03zm-1.28 8.697c-.854.915-1.84 1.372-2.946 1.372-1.108 0-2.093-.457-2.947-1.372-.853-.914-1.29-2.011-1.29-3.302 0-1.29.427-2.387 1.29-3.301.864-.915 1.84-1.372 2.947-1.372s2.082.457 2.946 1.372c.853.914 1.28 2.011 1.28 3.301s-.427 2.388-1.28 3.302zM76.36.284h-2.906v20.431h2.905V.285zm5.862 6.432h-2.926v14.01h2.926V6.716zm.294-6.432H79.01V3.79h3.505V.284zm6.624 2.835c.335-.335.752-.498 1.25-.498h1.9V0h-2.652c-2.6.061-3.911 1.514-3.911 4.369v2.336h-2.053v2.621h2.053v11.39h2.905V9.335h3.22v-2.62h-3.22V4.398c0-.518.173-.945.508-1.28zm-74.856 8.402a5.394 5.394 0 00-.934-.996 9.96 9.96 0 00-.752-.589 3.726 3.726 0 00-.325-.193l.528-.416c.335-.264.67-.742 1.006-1.423.335-.68.508-1.432.508-2.255 0-1.422-.59-2.672-1.758-3.77C11.39.794 9.977.255 8.321.255H0v20.472h8.768c1.88 0 3.444-.59 4.693-1.768 1.26-1.179 1.88-2.59 1.88-4.226 0-.62-.112-1.22-.335-1.788a6.588 6.588 0 00-.722-1.423zM3.21 3.028h5.11c.803 0 1.464.264 1.992.792s.792 1.189.792 1.981c0 .793-.264 1.453-.792 1.981-.528.529-1.189.793-1.991.793H3.21V3.028zm7.955 13.939c-.65.64-1.442.965-2.397.965H3.21v-6.726h5.558c.965 0 1.768.325 2.407.976.64.65.966 1.442.966 2.397-.01.955-.336 1.748-.976 2.388zm26.33-9.043c-1.097-1.016-2.489-1.513-4.206-1.513-2.773 0-5.232.447-5.232.447v2.956s2.459-.772 5.232-.772c.854 0 1.555.254 2.103.752.549.508.823 1.127.823 1.87l-5.11.883c-1.26.213-2.256.701-2.987 1.483-.731.783-1.087 1.748-1.087 2.896 0 1.067.467 2.011 1.412 2.834.945.823 2.123 1.24 3.546 1.24a5.79 5.79 0 001.442-.183 6 6 0 001.179-.417c.315-.152.61-.335.874-.528.274-.193.447-.335.538-.416.092-.082.153-.143.193-.183l.488 1.453h2.428v-9.053c0-1.483-.538-2.733-1.636-3.749zm-1.28 6.37c0 1.311-.335 2.317-1.006 3.028-.67.711-1.595 1.067-2.783 1.067-.762 0-1.362-.173-1.819-.529-.447-.355-.68-.761-.68-1.229 0-.508.162-.924.487-1.25.325-.335.742-.548 1.27-.64l4.531-.731v.284z" fill="#fff"/></svg>