<svg width="263" height="103" fill="none" xmlns="http://www.w3.org/2000/svg"><path d="M133.594 13.117c.805.044 1.61.082 2.415.131 2.239.136 4.486.207 6.716.434 2.978.304 5.959.636 8.91 1.124 6.856 1.134 13.536 2.899 19.837 5.886 3.035 1.439 5.896 3.15 8.356 5.456 1.817 1.704 3.306 3.634 4.004 6.058.773 2.687.348 5.233-1.05 7.634-1.293 2.224-3.121 3.958-5.174 5.474-2.957 2.184-6.23 3.792-9.644 5.135-4.349 1.71-8.835 2.965-13.429 3.826-2.615.49-5.242.95-7.882 1.274-2.717.333-5.453.56-8.187.695-3.086.153-6.181.222-9.271.192-2.573-.024-5.147-.2-7.714-.393a100.823 100.823 0 01-6.744-.705 126.95 126.95 0 01-7.378-1.29c-4.579-.934-9.052-2.235-13.367-4.036-3.336-1.392-6.522-3.049-9.358-5.304-1.898-1.51-3.555-3.232-4.675-5.402-.556-1.077-.946-2.21-1.06-3.426-.014-.142-.074-.28-.112-.42v-1.314c.099-.499.18-1 .3-1.494.56-2.324 1.86-4.222 3.512-5.907 2.27-2.317 4.97-4.04 7.85-5.501 5.705-2.894 11.791-4.653 18.04-5.913 3.512-.709 7.051-1.256 10.623-1.548 2.62-.214 5.245-.362 7.868-.534.805-.053 1.61-.088 2.415-.132h4.199zm-30.316 34.89c.433-.115.573-.372.698-.646.274-.598.546-1.195.821-1.792.212-.459.556-.713 1.083-.685.203.01.406.007.607.025 1.648.147 3.294.336 4.944.437 2.754.168 5.51.34 8.268.396 2.667.054 5.338.01 8.005-.082a76.79 76.79 0 006.213-.447c2.71-.315 4.994-1.55 6.884-3.494.586-.603.634-1.09.198-1.826-.325-.55-.674-1.087-1.004-1.636-.375-.623-.331-.873.248-1.288 1.581-1.133 3.169-2.256 4.751-3.388a2.067 2.067 0 011.341-.404c1.875.08 3.751.14 5.626.213 1.783.07 3.567.136 5.349.222.683.032.907.37.704 1.03a59.346 59.346 0 01-.702 2.129c-.272.785-.584.966-1.42.842-.999-.15-2.005-.268-2.993-.47-1.07-.22-1.98-.018-2.823.687-.94.784-.941 1.044.043 1.76a59.626 59.626 0 013.007 2.311c.868.722 1.162 1.707 1.037 2.809-.043.378-.099.764-.224 1.121-.358 1.033-.758 2.051-1.134 3.078-.071.195-.11.402-.157.58.327.28.619.359.974.262.62-.17 1.249-.302 1.868-.47 4.074-1.104 8.025-2.512 11.68-4.65 2.074-1.213 3.978-2.635 5.489-4.52 1.122-1.401 1.885-2.965 2.021-4.768.144-1.918-.496-3.623-1.576-5.183-1.23-1.775-2.847-3.152-4.646-4.317-5.289-3.428-11.223-5.188-17.327-6.487-.181-.039-.391.054-.663.097.117.273.177.44.258.599 1.105 2.165.974 4.28-.401 6.26a18.501 18.501 0 01-2.341 2.755c-3.648 3.515-7.762 6.428-12.129 8.998a25.514 25.514 0 01-9.122 3.266c-2.527.389-5.076.581-7.631.705-3.754.18-7.505.192-11.258-.006-1.169-.062-1.286-.265-.79-1.34l9.156-19.83c.106-.228.202-.462.311-.712-.394-.55-.889-.947-1.439-1.275-.122-.073-.324-.055-.48-.028-3.804.66-7.554 1.542-11.202 2.81-3.15 1.096-6.191 2.424-8.96 4.3-1.931 1.307-3.676 2.81-4.88 4.838-1.403 2.363-1.6 4.803-.415 7.314.634 1.341 1.55 2.479 2.626 3.49 2.232 2.096 4.855 3.596 7.64 4.83 1.273.564 2.577 1.056 3.867 1.58zm15.2-25.896l-6.447 15.178c.32.025.514.09.681.047 1.516-.388 2.92-.998 4.027-2.139a22.886 22.886 0 001.471-1.628c1.239-1.548 2.318-3.198 2.974-5.08.448-1.284.474-2.57-.189-3.811-.499-.936-1.27-1.646-2.009-2.38-.097-.097-.282-.108-.508-.187zm20.81-4.94l-.165.194c.147.188.282.388.444.563 1.435 1.552 2.033 3.35 1.624 5.438-.241 1.228-.849 2.282-1.645 3.237a42.381 42.381 0 01-8.845 8.03c-4.654 3.15-9.78 4.89-15.407 5.179-1.47.075-2.94.15-4.408.234-.32.018-.656.016-.974.306.177.068.302.145.434.16.42.046.843.098 1.264.095a56.385 56.385 0 007.313-.503c2.081-.287 4.125-.717 6.07-1.52 6.154-2.539 11.153-6.586 15.358-11.646 1.014-1.221 1.6-2.655 1.696-4.253.126-2.08-.599-3.823-2.183-5.2-.161-.14-.383-.21-.576-.313zm-9.558-.265l-.115.157c.112.177.214.36.336.53.577.8 1.191 1.578 1.732 2.401.79 1.203 1.111 2.533.89 3.966-.176 1.14-.673 2.152-1.312 3.1a37.444 37.444 0 01-6.127 7.011c-1.987 1.777-4.218 3.09-6.833 3.735-2.288.563-4.609.908-6.951 1.14-.329.033-.696-.016-.965.31.313.274.678.216 1.01.217 2.179.004 4.316-.341 6.444-.78a15.72 15.72 0 005.64-2.382c2.23-1.496 4.123-3.35 5.867-5.362 1.212-1.398 2.392-2.826 3.279-4.457.817-1.5 1.228-3.086.758-4.788-.526-1.904-1.784-3.324-3.195-4.633-.108-.1-.303-.112-.458-.165zm-.057 73.966V65.05c.194-.017.386-.049.578-.049 4.326-.003 8.652.015 12.978-.006 5.535-.027 10.352 3.53 11.662 9.35.781 3.469.561 6.87-1.013 10.079-1.74 3.546-4.649 5.659-8.585 6.33a11.31 11.31 0 01-1.866.152c-4.344.013-8.688.007-13.032.005-.233 0-.466-.024-.722-.038zm6.815-21.109c-.166.665-.13 15.963.045 16.41h.581c1.454 0 2.91.035 4.363-.007 2.748-.08 4.853-1.293 6.089-3.743 1.209-2.4 1.308-4.943.56-7.503-.965-3.308-3.517-5.183-6.976-5.184l-4.087.001c-.196 0-.393.018-.575.026zM99.869 90.868l9.483-25.827h9.551l9.485 25.821h-6.655a8541.37 8541.37 0 00-1.756-4.737H108.28l-1.76 4.743h-6.651zm10.162-9.53h8.194l-4.031-10.979-.138.017-4.025 10.963zm49.679 9.532h-6.655l9.484-25.829h9.552l9.481 25.821h-6.655l-1.748-4.731h-11.706l-1.753 4.739zm7.675-20.503l-.135-.011-4.029 10.97h8.188l-4.024-10.959zM88.136 86.166h10.702v4.696H81.482v-25.74c.382-.148 5.79-.2 6.654-.055v21.1z" fill="#898989"/></svg>