<svg width="263" height="103" fill="none" xmlns="http://www.w3.org/2000/svg"><path d="M120.177 48.662v-2.9h-15.694v14.456h15.672v-5.811h-8.07v-2.582h11.428c.007.131.019.247.019.364.001 2.177.02 4.354-.012 6.53-.009.655-.125 1.315-.258 1.958-.249 1.199-1.032 1.904-2.211 2.146-.598.123-1.214.217-1.822.219-4.611.018-9.222.017-13.834 0-.572-.001-1.15-.096-1.715-.198-1.356-.244-2.137-1.087-2.376-2.42a10.449 10.449 0 01-.187-1.789c-.016-3.752-.02-7.505.003-11.257.004-.666.112-1.34.247-1.995.244-1.193 1.009-1.92 2.194-2.163.598-.123 1.214-.22 1.821-.223 4.624-.019 9.247-.022 13.871.003.677.003 1.364.132 2.027.286 1.005.233 1.652.891 1.956 1.88.265.86.318 1.746.291 2.639-.003.076-.069.204-.125.216-1.056.218-2.114.423-3.225.64zm49.117-5.675c2.444 0 4.888-.01 7.332.008a8.369 8.369 0 011.611.17c1.548.318 2.253 1.078 2.519 2.706.089.543.138 1.1.14 1.65.012 3.703.015 7.407-.002 11.111a9.341 9.341 0 01-.193 1.787c-.308 1.519-1.038 2.217-2.569 2.478a9.986 9.986 0 01-1.649.148c-4.84.011-9.68.014-14.519-.002-.597-.002-1.198-.095-1.788-.2-1.338-.24-2.118-1.073-2.364-2.39a9.753 9.753 0 01-.191-1.75c-.017-3.777-.021-7.553.002-11.329.004-.666.113-1.34.248-1.995.246-1.193 1.016-1.916 2.199-2.16a9.748 9.748 0 011.857-.222c2.455-.025 4.911-.01 7.367-.01zm-8.309 2.774v14.463h16.575V45.761h-16.575zM68.721 63.023V42.986c.676 0 1.335-.009 1.994.009.112.003.237.1.33.183 3.97 3.537 7.936 7.076 11.902 10.616 1.077.961 2.169 1.907 3.215 2.9.591.562 1.104 1.205 1.65 1.812.071.078.137.159.225.261-.41-5.263-.08-10.497-.225-15.754h3.068V63.05c-.6 0-1.197.009-1.794-.008-.1-.003-.21-.104-.296-.181-4.846-4.377-9.692-8.756-14.535-13.137-.923-.835-1.907-1.612-2.624-2.724.296 5.38.06 10.688.162 16.023h-3.072zm130.107.017h-3.35V45.756h-9.153V43.01H208v2.73h-9.172v17.3zm-47.116-2.804v2.792h-18.536v-20.02h3.32v17.228h15.216zM55 43.001h3.315v20.033H55V43z" fill="#898989"/></svg>