<svg width="263" height="103" fill="none" xmlns="http://www.w3.org/2000/svg"><g clip-path="url(#clip0)" fill="#898989"><path d="M73.36 63.234V35.218h18.204v4.784H78.682v5.758c1.524 0 3.024.011 4.524-.004 1.148-.012 2.292.019 3.421.247 3.516.712 5.94 3.202 6.533 6.63.381 2.199.191 4.315-.834 6.312-1.154 2.247-3.049 3.498-5.418 4.077-.946.231-1.912.274-2.882.273-3.327-.002-6.654 0-9.982-.003-.213 0-.432.042-.683-.056zm5.315-4.768c1.837 0 3.633-.012 5.428.003 2.3.02 3.838-1.484 3.903-3.725.07-2.408-1.359-3.967-3.397-4.095-1.679-.105-3.36-.022-5.039-.043-.29-.004-.588-.061-.895.057v7.803zm-40.54 4.827c-1.089 0-2.178.009-3.266-.004-.68-.008-.86-.21-.862-.912-.002-1.532.013-3.064-.007-4.596-.008-.625.23-1.044.742-1.39 4.954-3.346 9.896-6.708 14.842-10.066l8.893-6.04c.708-.48.97-.48 1.657-.012 1.063.725 2.118 1.462 3.193 2.168.494.324.744.738.736 1.339-.017 1.29-.018 2.58-.021 3.869-.001.484-.21.82-.61 1.09-6.912 4.679-13.82 9.364-20.724 14.055-.494.335-1.011.51-1.604.502-.99-.012-1.98-.003-2.97-.003zm173.934 7.559V42.771h4.774c.106.588-.007 1.208.067 1.896.34-.291.637-.54.929-.796 1.432-1.257 3.135-1.514 4.934-1.334 1.41.142 2.731.567 3.828 1.535 1.183 1.045 1.797 2.41 2.044 3.951.491 3.064.42 6.142.107 9.213-.149 1.46-.53 2.864-1.487 4.042-.951 1.17-2.205 1.802-3.622 2.077-1.487.289-2.982.293-4.419-.33-.793-.344-1.427-.913-2.15-1.553v9.38h-5.005zm11.926-17.863c-.061-1.112-.028-2.26-.298-3.383-.317-1.328-.994-2.31-2.422-2.51-1.817-.254-3.398.32-3.93 2.435-.172.688-.224 1.383-.264 2.082-.091 1.63-.094 3.258.284 4.857.245 1.034.738 1.89 1.788 2.296.512.198 1.039.189 1.57.196 1.571.02 2.488-.894 2.873-2.247.348-1.215.326-2.458.399-3.726zM138.444 42.76v16.035h6.539v-16.02h5.066v16.033h2.718v9.506h-4.766v-5.019h-14.56V42.759h5.003zM96.053 45.2c1.338-1.62 3.165-2.453 5.328-2.626 2.345-.188 4.656-.112 6.839.894 2.152.99 3.25 2.763 3.473 5.122.214 2.253.073 4.514.094 6.77.024 2.62.005 5.238.005 7.895h-4.85c-.12-.526.012-1.088-.061-1.63-.072-.019-.123-.03-.173.024-1.136 1.218-2.57 1.742-4.18 1.832-1.433.081-2.836-.076-4.159-.686-2.067-.954-3.062-2.669-3.266-4.905-.126-1.381.039-2.723.784-3.925.942-1.52 2.374-2.288 4.052-2.634 1.426-.294 2.876-.19 4.317-.203.811-.007 1.622-.001 2.527-.001-.025-1.01.119-2.004-.383-2.934-.391-.725-1.042-1.075-1.789-1.256-.934-.227-1.89-.197-2.833-.104-.797.08-1.509.428-2.095 1.009-.196.194-.4.38-.682.647l-2.948-3.29zm10.7 9.379c-.491 0-.924-.012-1.356.002-1.204.04-2.413-.103-3.614.097-1.167.194-1.89 1.016-1.938 2.215-.045 1.133.581 2 1.695 2.291a6.14 6.14 0 002.991.034c1.306-.306 2.037-1.092 2.186-2.418.081-.715.104-1.443.036-2.221zm79.379-4.062v-7.74h5.034v20.475h-5.009v-8.2h-6.58v8.206h-4.989v-20.49h4.963v7.75h6.581zm-14.452 4.038h-12.619c-.186 2.583 1.338 4.386 3.542 4.64.79.09 1.577.083 2.362-.061 1.211-.221 2.19-.859 3.06-1.779l2.831 3.14c-1.145 1.23-2.666 2.252-4.549 2.691-2.223.52-4.434.488-6.602-.211-2.313-.746-3.944-2.318-4.763-4.643-1.211-3.439-1.286-6.936-.02-10.367 1.153-3.122 3.404-4.964 6.709-5.376 2.604-.325 4.983.213 7.011 1.971 1.475 1.28 2.288 2.97 2.721 4.868.379 1.665.31 3.355.317 5.127zm-12.65-3.452h7.693c-.019-2.706-1.442-4.383-3.793-4.423-2.718-.046-4.017 2.203-3.9 4.423zm-36.79 4.293l4.02-12.647h5.233c-.424 1.164-.838 2.298-1.249 3.433-2.498 6.893-4.986 13.79-7.499 20.678-.554 1.52-1.413 2.812-2.951 3.495-.773.343-1.593.458-2.417.511-.746.049-1.497.01-2.277.01v-4.568c.459 0 .926-.002 1.393 0 1.078.006 1.78-.53 2.136-1.55.334-.957.658-1.919.987-2.883l-6.908-19.11h5.235l4.163 12.635.134-.004zM56.915 38.27c-.315.537-22.263 15.384-22.752 15.403-.21-.138-.153-.356-.153-.55-.003-3.124.003-6.248-.006-9.372-.002-.587.26-.966.726-1.28 3.431-2.318 6.854-4.648 10.28-6.974 1.13-.768 2.268-1.525 3.39-2.307.43-.3.813-.314 1.25-.017 2.307 1.575 4.624 3.137 6.937 4.705.149.101.28.22.328.392zm153.073 4.482v4.443h-5.805v16.053h-4.98V47.23h-5.971v-4.478h16.756zM46.536 63.07L63.75 51.393c.417.252.303.606.304.9.008 3.306.005 6.61.005 9.916 0 .12-.011.242-.011.362 0 .468-.223.707-.686.708-.178 0-.356.013-.534.013h-16.2l-.093-.224z"/></g><defs><clipPath id="clip0"><path fill="#fff" transform="translate(34 32)" d="M0 0h195v40H0z"/></clipPath></defs></svg>