<svg width="263" height="103" fill="none" xmlns="http://www.w3.org/2000/svg"><path d="M140.992 38.85h9.869v21.008h-4.258V41.452h-1.344v18.406h-4.267V38.85zm16.617 21.008h-4.258V38.85h6.692c2.989 0 3.168 2.28 3.168 3.785v6.36c0 1.476-.179 3.785-3.168 3.785h-2.434v7.078zm0-9.463h.555c.451 0 .789-.398.789-1.05v-6.843c0-.653-.338-1.05-.789-1.05h-.555v8.943zm-25.555 9.463h3.534c2.989 0 3.168-2.28 3.168-3.785V51.88c0-.748 0-2.915-2.886-2.84v-.217a2.569 2.569 0 002.12-.722 2.614 2.614 0 00.766-2.117v-3.379c0-1.476-.179-3.785-3.168-3.785h-3.534c-2.979 0-3.157 2.28-3.157 3.785v2.972h4.257v-3.435a.652.652 0 01.667-.691.68.68 0 01.677.69v4.184c0 1.287-.432 1.561-1.645 1.561h-1.823v2.31h1.729c1.589 0 1.711.728 1.711 1.38v4.894a.68.68 0 01-.677.69.644.644 0 01-.627-.425.651.651 0 01-.04-.265v-3.956h-4.229v3.605c0 1.467.178 3.738 3.157 3.738zm-15.639 0l2.218-21.008h6.702l2.218 21.008h-4.173l-.395-5.583h-2.011l-.395 5.583h-4.164zm4.7-7.892h1.701l-.715-10.514h-.244l-.742 10.514zm44.173 4.145V42.606c0-1.476.188-3.785 3.167-3.785h3.534c2.979 0 3.167 2.28 3.167 3.785V56.12c0 1.467-.188 3.786-3.167 3.786h-3.534c-2.989-.048-3.177-2.319-3.177-3.786l.01-.01zm4.266.35a.67.67 0 00.183.493.646.646 0 00.485.198.671.671 0 00.619-.43.688.688 0 00.048-.261V42.143a.688.688 0 00-.409-.636.67.67 0 00-.743.142.66.66 0 00-.183.494V56.46zm-56.889-15.009h3.863V38.85h-8.129v21.008h4.266V41.452zm1.532 35.157a.729.729 0 00.697-.48.748.748 0 00.046-.296v-4.41a.705.705 0 00-.457-.679.698.698 0 00-.286-.04.687.687 0 00-.733.719v4.41a.743.743 0 00.198.55.73.73 0 00.535.226zM92.224 43.553a34.35 34.35 0 011.156-13.836 38.355 38.355 0 014.652-9.605c2.296 3.342 4 7.06 5.038 10.987a32.15 32.15 0 01.704 13.069 33.092 33.092 0 01-5.723 14.394 30.512 30.512 0 01-3.468-6.133 38.06 38.06 0 01-2.36-8.876zm7.519 6.33a15.577 15.577 0 00-1.683-6.623 14.396 14.396 0 00-1.757 6.908 15.272 15.272 0 001.729 6.965 14.674 14.674 0 001.71-7.25zm-5.771-3.35a41.458 41.458 0 01.761-8.317 35.481 35.481 0 013.28-8.849 35.357 35.357 0 013.318 8.867c.562 2.703.802 5.464.714 8.224.402-1.901.616-3.838.639-5.782a34.408 34.408 0 00-1.231-9.624 35.858 35.858 0 00-3.44-7.921 39.285 39.285 0 00-3.393 8.034 35.24 35.24 0 00-1.184 7.306 41.15 41.15 0 00.536 8.063zm94.445-7.683l-2.819 14.772-2.716-14.772h-5.546v21.008h4.267V46.685h.179l2.162 13.173h3.411l2.19-13.182h.151v13.182H194V38.85h-5.583zm-80.018 27.547h85.526v14.498h-85.526V66.397zM185.203 78h4.013v1.788h2.078v-3.435h-.452v-7.031h-2.124v7.05h-1.391v-7.05h-2.124V78zm-17.989-7.05h1.673V78h1.946v-7.05h1.551v-1.628h-5.17v1.627zm-18.675-1.628l1.984 6.851a.441.441 0 01-.499.293c-.18.007-.36-.012-.535-.056v1.429c.332.166.701.244 1.071.227 1.485 0 1.993-.407 2.472-2.092l1.88-6.7h-2.19l-.827 3.786a17.48 17.48 0 00-.207 1.798c-.056-.947-.056-1.477-.113-1.798l-.808-3.738h-2.228zM130.175 78h2.124v-3.691h1.391v3.69h2.124v-8.677h-2.124v3.35h-1.391v-3.35h-2.124V78zm-18.797-2.537c0 1.732.94 2.745 2.819 2.745 1.88 0 2.82-1.013 2.82-2.745v-3.898c0-1.354-.855-2.46-2.82-2.46-1.964 0-2.876 1.078-2.876 2.45l.057 3.908zM90.316 59.858v6.625a6.059 6.059 0 014.23-1.724c1.578 0 3.094.618 4.228 1.724a5.86 5.86 0 010 8.366 12.09 12.09 0 01-8.458 3.458 12.09 12.09 0 01-8.459-3.459 11.691 11.691 0 01-1.476-14.99 12.48 12.48 0 011.476-1.76 11.987 11.987 0 018.459-3.463V38.83a21.033 21.033 0 00-14.98 6.07A21.326 21.326 0 0069 59.859a21.336 21.336 0 006.335 14.96 21.042 21.042 0 0014.98 6.077 21.329 21.329 0 008.458-1.704 21.453 21.453 0 007.107-4.92V59.858H90.316z" fill="#898989"/></svg>