<svg width="263" height="103" fill="none" xmlns="http://www.w3.org/2000/svg"><path d="M81.95 50.098c3.222 0 6.444-.002 9.667 0 1.122.001 1.416.333 1.456 1.469.157 4.436-2.177 7.33-5.741 9.44-3.981 2.355-8.333 3.4-12.91 3.522-3.224.086-6.445.033-9.61-.723-3.165-.756-6.12-1.96-8.734-3.97-5.918-4.553-4.894-11.582-.132-15.37 2.974-2.367 6.377-3.786 10.064-4.423 6.47-1.118 12.87-.886 19.098 1.458 1.925.724 3.703 1.706 5.252 3.073.21.186.438.647.35.815-.126.238-.536.45-.827.453a289.43 289.43 0 01-7.796.001c-.38-.005-.808-.188-1.129-.413-4.964-3.465-12.528-3.238-16.975.53-3.116 2.641-3.881 6.575-1.892 9.87 1.205 1.995 2.979 3.333 5.11 4.141 4.402 1.671 8.681 1.4 12.738-1.088 1.54-.944 2.735-2.246 3.484-3.928.341-.765.21-.977-.638-.978-3.493-.005-6.986-.002-10.479-.002-1.147 0-1.434-.29-1.439-1.445-.002-.4-.006-.798.002-1.197.017-.851.366-1.21 1.225-1.232.624-.016 1.248-.004 1.872-.004h7.983zm67.514 14.562c-4.017-.046-7.921-.58-11.66-2.107-2.076-.848-3.981-1.97-5.656-3.489-4.684-4.25-3.776-10.423.004-13.921 2.609-2.415 5.713-3.906 9.107-4.706 6.74-1.591 13.427-1.478 19.966 1.069 2.359.919 4.458 2.236 6.163 4.147 3.966 4.447 3.421 10.48-1.294 14.116-3.214 2.479-6.91 3.804-10.864 4.392-1.905.283-3.843.34-5.766.5zm-11.501-12.687c.014.294.024.587.044.88.008.125.036.249.06.372.491 2.586 2.029 4.42 4.175 5.764 2.87 1.797 6.021 2.322 9.337 1.865 2.391-.33 4.57-1.21 6.44-2.783 3.918-3.298 4.035-8.408.278-11.883-4.654-4.305-13.221-4.23-17.784.17-1.58 1.524-2.526 3.36-2.55 5.615z" fill="#898989"/><path d="M175.738 63.837c-1.684 0-3.369.02-5.052-.016-.404-.01-.803-.212-1.205-.325.263-.323.469-.727.795-.956 4.367-3.066 8.751-6.108 13.131-9.156 1.153-.803 1.153-1.868-.008-2.653-4.369-2.952-8.74-5.9-13.11-8.85-.155-.104-.367-.18-.448-.328-.169-.308-.376-.666-.348-.982.015-.159.513-.386.794-.388 3.014-.027 6.029-.017 9.043-.014 1.151 0 2.101.39 2.96 1.224 2.246 2.182 4.564 4.291 6.854 6.429.836.78 1.252.787 2.074.021 2.398-2.235 4.804-4.463 7.186-6.716.594-.561 1.268-.89 2.061-.907 1.932-.04 3.866-.043 5.799-.054 1.247-.007 2.496-.03 3.741.018.323.012.79.176.922.42.227.419-.117.786-.475 1.039-.494.348-.999.68-1.499 1.017-3.973 2.682-7.944 5.366-11.92 8.041-.494.332-.868.724-.888 1.353-.017.552.248.926.702 1.24a3309.67 3309.67 0 0113.14 9.141c.385.27 1.056.49.852 1.056-.087.24-.83.328-1.276.331-3.347.027-6.694.006-10.041.02-.888.004-1.614-.309-2.235-.932-2.047-2.06-4.097-4.114-6.148-6.17-.717-.72-1.177-.715-1.9.01-2.003 2.013-4.016 4.02-6.009 6.044-.7.71-1.496 1.073-2.503 1.052-1.662-.035-3.326-.01-4.989-.01zm-62.873-.009c-4.594 0-9.189.002-13.784 0-1.805 0-2.381-.585-2.382-2.416-.002-6.278-.002-12.555 0-18.833 0-1.805.596-2.411 2.404-2.412 9.273-.005 18.546-.003 27.818-.001 1.163 0 1.469.322 1.471 1.502.004 2.13-.057 2.192-2.162 2.192h-18.712c-1.265 0-1.497.232-1.5 1.494-.002 1.071 0 2.142 0 3.212-.001 1.364.251 1.624 1.587 1.624l15.344.001c.207 0 .416-.009.623.008.619.05.951.38.976 1.001.022.545.022 1.092.001 1.637-.024.645-.377.983-1.025 1.019-.165.009-.332.002-.499.002-5.093 0-10.187-.001-15.281.003-.309 0-.625.012-.928.072-.484.097-.777.418-.781.923a146.37 146.37 0 00.005 4.345c.013.685.388.954 1.193.955 4.2.002 8.399 0 12.599 0 2.412 0 4.823-.002 7.235.002.953.001 1.308.364 1.324 1.331.005.336.003.672 0 1.008-.007.995-.327 1.328-1.305 1.33-2.474.004-4.948.001-7.422.001h-6.799z" fill="#898989"/></svg>