<svg width="133" height="77" viewBox="0 0 133 77" fill="none" xmlns="http://www.w3.org/2000/svg">
<path d="M131.235 17.8567L67.0916 0.113516C66.7036 0.00594393 66.2964 0.00594393 65.9078 0.113516L1.76477 17.8567C0.725713 18.1442 0 19.1445 0 20.2895V55.7759C0 56.9209 0.725713 57.9207 1.76477 58.2082L65.9084 75.9524C66.1024 76.0059 66.3014 76.033 66.5 76.033C66.6991 76.033 66.8976 76.0059 67.0916 75.9524L131.235 58.2082C132.274 57.9207 133 56.9209 133 55.7759V20.2895C133 19.1445 132.274 18.1442 131.235 17.8567Z" fill="#DBDBDB"/>
<path d="M66.5 73.5192L2.35645 55.776V20.2892L66.5 2.54602L130.644 20.2892V55.776L66.5 73.5192Z" fill="#898989"/>
<path d="M66.5 71.6711L66.4706 71.6629L4.13135 54.4189V21.6468L4.2126 21.6243L66.5 4.39404L66.5295 4.4022L128.869 21.6473V54.4194L128.787 54.4418L66.5 71.6711ZM4.35175 54.2501L66.4995 71.4417L128.647 54.2501V21.8155L66.5 4.62346L4.35175 21.8155V54.2501Z" fill="#F8F8F8"/>
<path d="M16.2716 43.4691H14.0493V32.2083H20.7168V34.6894H16.2716V43.4691Z" fill="white"/>
<path d="M26.1457 32.2083C27.7759 32.2083 30.2207 32.2082 30.2207 35.1666C30.2207 35.6438 30.2207 37.3717 28.7393 37.8489V37.9641C30.2207 38.4413 30.2207 40.034 30.2207 40.5111C30.2207 43.4696 27.7759 43.4696 26.1457 43.4696H21.9976V32.2083H26.1457ZM26.8866 36.5983C27.7017 36.5983 27.7017 36.5983 27.7017 35.6439C27.7017 34.6895 27.7017 34.6894 26.8866 34.6894H24.2199V36.5983H26.8866ZM24.2199 39.0791V40.9878H26.8866C27.7017 40.9878 27.7017 40.9878 27.7017 40.0339C27.7017 39.0796 27.7017 39.0796 26.8866 39.0796H24.2199V39.0791Z" fill="white"/>
<path d="M37.6229 32.2083L40.8335 42.5474V43.4696H38.6848L37.9438 41.0837H33.6475L32.9065 43.4696H30.7578V42.5469L33.9684 32.2078H37.6229V32.2083ZM34.3138 38.6977H37.2775C36.6844 36.789 36.4685 35.8677 36.1984 34.8802H35.3934C35.1502 35.8856 34.9069 36.789 34.3138 38.6977Z" fill="white"/>
<path d="M41.7402 32.2083H45.2961C47.5926 32.2083 49.9632 32.2082 49.9632 36.4707C49.9632 40.7017 47.5926 40.7018 45.2961 40.7018H43.9625V43.4691H41.7402V32.2083ZM43.963 38.2205H46.1853C47.5926 38.2205 47.5926 38.2204 47.5926 36.4707C47.5926 34.6889 47.5926 34.6889 46.1853 34.6889H43.963V38.2205Z" fill="white"/>
<path d="M59.6604 40.9878H58.5238V32.2083H51.708C51.708 35.0709 51.708 38.4433 50.2266 40.9883H49.3374V45.1408H51.2636V43.4696H55.3198H57.5183H57.8357V45.1408H59.7619V40.9883H59.6604V40.9878ZM52.5972 40.9878C53.4865 38.6977 53.4865 35.8345 53.4865 34.6889H56.3015V40.9878H52.5972Z" fill="white"/>
<path d="M63.177 40.9878H68.2143V43.4691H60.9541V32.2083H68.2143V34.6894H63.177V36.5983H67.3251V39.0796H63.177V40.9878Z" fill="white"/>
<path d="M72.1499 39.4609C72.1499 39.4609 73.1235 37.1708 75.6419 32.2082H78.3086V43.4696H76.0862V36.2159H75.8745C75.8745 36.2159 74.9009 38.6019 72.3825 43.4691H69.7158V32.2082H71.9381V39.4609H72.1499ZM74.224 29.6683C74.9527 29.6683 75.3453 29.5358 75.6662 28.9633L76.6535 29.9334C75.7643 31.4445 74.9817 31.4445 74.0437 31.4445H73.9792C73.0407 31.4445 72.2581 31.4445 71.3694 29.9176L72.3576 28.9633C72.6903 29.5363 73.0833 29.6683 73.7994 29.6683H74.224Z" fill="white"/>
<path d="M112.229 39.4609C112.229 39.4609 113.202 37.1708 115.721 32.2082H118.387V43.4696H116.165V36.2159H115.953C115.953 36.2159 114.98 38.6019 112.461 43.4691H109.794V32.2082H112.017V39.4609H112.229ZM114.303 29.6683C115.031 29.6683 115.424 29.5358 115.745 28.9633L116.732 29.9334C115.843 31.4445 115.06 31.4445 114.122 31.4445H114.058C113.119 31.4445 112.337 31.4445 111.448 29.9176L112.436 28.9633C112.769 29.5363 113.162 29.6683 113.878 29.6683H114.303Z" fill="white"/>
<path d="M95.1948 37.8386L98.1261 42.5147V43.4691H95.7555C94.4219 41.1785 93.4489 39.0791 93.4489 39.0791H91.9035V43.4691H89.6812V32.2083H91.9035V36.5983H93.4489C93.4489 36.5983 94.4224 34.4984 95.7555 32.2083H98.1261V33.1626L95.1948 37.8386Z" fill="white"/>
<path d="M101.764 39.4608C101.764 39.4608 102.738 37.1708 105.256 32.2083H107.923V43.4696H105.701V36.2159H105.489C105.489 36.2159 104.515 38.6019 101.997 43.4691H99.3301V32.2083H101.553V39.4608H101.764Z" fill="white"/>
<path d="M86.2232 39.8046C85.9459 41.1102 85.5102 41.1153 84.2533 41.1153C82.1792 41.1153 82.1792 41.1153 82.1792 38.1252V37.8198V37.7622V37.5522C82.1792 34.5621 82.1792 34.5621 84.2533 34.5621C85.7103 34.5621 85.7103 34.5621 86.1054 36.5983L88.3277 35.882C88.3277 35.0709 88.3277 31.8896 84.5499 31.8896H83.9567C79.8086 31.8896 79.8086 36.0253 79.8086 37.361V37.7617V37.8193V38.3154C79.8086 39.6516 79.8086 43.7867 83.9567 43.7867L84.8124 43.7852C87.3567 43.7852 88.5029 41.4793 88.5867 40.1247L86.2232 39.8046Z" fill="white"/>
<path d="M103.537 68.3129C103.085 67.4406 102.619 66.7972 102.335 66.4383C102.467 66.188 102.719 65.7883 103.171 65.2943C103.915 64.4827 104.851 64.0111 104.86 64.007L105.838 63.5191L104.931 62.9094C104.849 62.8548 102.891 61.5527 100.011 60.7559L99.5973 60.6412V55.2075L99.2529 55.0306C89.9416 50.2455 78.6156 47.7168 66.4994 47.7168C54.3827 47.7168 43.0572 50.246 33.7468 55.0306L33.4025 55.2075V60.6407L32.9881 60.7554C30.1076 61.5517 28.1503 62.8543 28.0681 62.9088L27.1611 63.5186L28.1392 64.0065C28.1488 64.0111 29.0838 64.4821 29.8278 65.2938C30.2802 65.7883 30.5326 66.189 30.6642 66.4378C30.3808 66.7967 29.9151 67.4401 29.4631 68.3124C28.6115 69.953 28.227 71.644 28.159 71.9663L27.8147 73.5895L29.1508 72.6122C30.815 71.3942 32.6504 70.4312 34.5853 69.7526L34.668 69.7236C36.0489 69.2459 37.4785 68.9114 38.9335 68.7325L39.4865 68.6647L39.5083 63.8321C47.6989 59.8749 57.0224 57.7857 66.4994 57.7857C75.9763 57.7857 85.2999 59.8754 93.4914 63.8321L93.5128 68.6647L94.0658 68.7325C95.5203 68.9119 96.9514 69.2459 98.3317 69.7236L98.416 69.7526C100.351 70.4317 102.184 71.3937 103.849 72.6122L105.185 73.5895L104.84 71.9663C104.772 71.6446 104.387 69.9535 103.537 68.3129Z" fill="white"/>
<path d="M101.598 66.5459C101.598 66.5459 101.787 65.8683 102.705 64.865C103.545 63.9473 104.58 63.4375 104.58 63.4375C104.58 63.4375 102.658 62.1467 99.8434 61.3682C99.8434 61.3682 99.1406 65.149 98.9649 65.7337V55.5965C89.5499 50.7584 78.2919 48.3525 66.5002 48.3525C54.7091 48.3525 43.4506 50.7584 34.0356 55.5965V65.7342C33.8599 65.15 33.1571 61.3687 33.1571 61.3687C30.3426 62.1472 28.4204 63.438 28.4204 63.438C28.4204 63.438 29.4548 63.9484 30.2948 64.8655C31.213 65.8683 31.4019 66.5464 31.4019 66.5464C31.4019 66.5464 30.7001 67.3055 30.0247 68.6066C29.2009 70.1946 28.8292 71.8633 28.7789 72.0993C31.6777 69.978 35.1199 68.5637 38.8576 68.1024L38.8785 63.4334C46.6348 59.6205 56.1793 57.1499 66.5007 57.1499C76.8217 57.1499 86.3667 59.6205 94.123 63.4334L94.1439 68.1024C97.8816 68.5632 101.324 69.9775 104.222 72.0993C104.172 71.8633 103.8 70.1941 102.977 68.6066C102.3 67.305 101.598 66.5459 101.598 66.5459ZM34.0544 65.7791C34.0595 65.7755 34.0651 65.773 34.0702 65.7694C34.0676 65.7888 34.0625 65.7934 34.0544 65.7791ZM98.9298 65.7694C98.9349 65.7725 98.94 65.7755 98.945 65.7791C98.9374 65.7934 98.9323 65.7888 98.9298 65.7694Z" fill="#999999"/>
<path d="M103.483 71.0496C100.799 69.3056 97.7525 68.1615 94.584 67.7124L94.5642 63.1556L94.3169 63.0348C85.8953 58.8941 76.2762 56.7054 66.4996 56.7054C56.7236 56.7054 47.1044 58.8941 38.6828 63.0348L38.4355 63.1556L38.4157 67.7124C35.2467 68.1615 32.2001 69.3056 29.5172 71.0496C29.7132 70.4149 30.0088 69.5997 30.4171 68.812C31.0529 67.5864 31.7202 66.8554 31.7268 66.8477L31.8949 66.6652L31.8284 66.4251C31.806 66.3456 31.5826 65.615 30.6197 64.5637C30.1708 64.0733 29.6741 63.694 29.2866 63.4355C29.988 63.0429 31.2393 62.4149 32.8111 61.9315C32.9837 62.8518 33.3453 64.7498 33.5348 65.5635L33.4545 65.6094L33.6704 66.0009L33.7978 66.2232L34.0619 66.2319H34.4397L34.4778 65.0221V55.8688C43.5911 51.2422 54.6571 48.7971 66.4986 48.7971C78.3411 48.7971 89.4065 51.2422 98.5198 55.8693L98.4894 65.822L98.5361 66.2145L98.9368 66.2324H99.1973L99.5239 65.6486L99.4553 65.5997C99.6432 64.8064 100.012 62.866 100.188 61.9326C101.759 62.4159 103.01 63.044 103.712 63.4365C103.325 63.695 102.828 64.0743 102.379 64.5648C101.417 65.616 101.194 66.3471 101.172 66.4271L101.105 66.6662L101.273 66.8487C101.28 66.8564 101.947 67.5875 102.583 68.8131C102.991 69.5997 103.286 70.4149 103.483 71.0496Z" fill="#999999"/>
<path d="M42.3301 58.5974L42.6475 58.3725L41.6709 55.8444L41.4658 55.9244C41.6359 56.3654 41.6501 56.6641 41.7649 59.0547L40.8569 59.408C39.3364 57.564 39.1464 57.334 38.9763 56.893L38.7716 56.9731L39.7823 59.5895L40.1332 59.4528L40.2129 59.6588L38.9534 60.1487L38.8737 59.9428L39.2973 59.643L38.1622 56.7024L37.6935 56.8849L37.6143 56.6789L39.4598 55.9611C40.8533 57.6511 41.0432 57.8816 41.2134 58.3226L41.3891 58.2543C41.2189 57.8138 41.2047 57.5145 41.0996 55.3233L42.8862 54.6279L42.9659 54.8339L42.5429 55.1342L43.6779 58.0743L44.1462 57.8918L44.2254 58.0977L42.4099 58.8044L42.3301 58.5974Z" fill="#F8F8F8"/>
<path d="M47.587 53.4971L47.1386 53.7587L48.0141 56.7901L48.4971 56.6493L48.558 56.8614L46.5652 57.4411L46.5038 57.229L46.9522 56.9675L46.6983 56.088L45.8832 56.3251C46.035 56.8507 45.8685 57.2932 45.7202 57.6868L44.5729 58.0208L44.5115 57.8087L45.0488 56.3817L45.0137 56.2604C44.2367 56.2889 44.0671 55.7031 44.0062 55.491C43.6908 54.4 44.7781 54.0839 45.7745 53.7939L47.5261 53.2845L47.587 53.4971ZM46.1295 54.1181L45.7674 54.2236C44.8914 54.478 44.9091 54.5387 45.1189 55.2667C45.3291 55.9942 45.3464 56.0549 46.2224 55.8L46.585 55.6945L46.1295 54.1181Z" fill="#F8F8F8"/>
<path d="M51.6923 53.4859L51.4135 52.9225C51.09 52.9134 50.7655 52.9037 50.3308 53C49.471 53.1892 49.5273 53.4461 49.7767 54.5866L49.8168 54.7716C50.0596 55.8815 50.118 56.1487 51.0392 55.9457C51.4074 55.8642 51.7558 55.6908 52.1042 55.517L52.35 55.463L52.4464 55.905C51.7111 56.2715 51.2302 56.3776 50.9229 56.4454C49.0804 56.8517 48.8082 55.6077 48.6808 55.0225L48.6401 54.8374C48.5056 54.221 48.2405 53.0082 50.1134 52.5957C50.3282 52.5483 50.8711 52.429 51.6913 52.4525L51.9071 53.439L51.6923 53.4859Z" fill="#F8F8F8"/>
<path d="M56.7579 53.5884C56.825 54.0248 57.0312 55.3763 55.2293 55.6542L54.8566 55.7118C53.0547 55.9896 52.8485 54.6381 52.7815 54.2017L52.7338 53.8897C52.6667 53.4533 52.4605 52.1023 54.2624 51.8244L54.6351 51.7668C56.437 51.4889 56.6432 52.84 56.7102 53.2769L56.7579 53.5884ZM53.8856 53.9356C54.0907 55.2764 54.1095 55.4013 54.9795 55.2672C55.8489 55.1331 55.8301 55.0082 55.6249 53.6674L55.6062 53.5425C55.401 52.2017 55.3822 52.0768 54.5122 52.2114C53.6428 52.3454 53.6616 52.4703 53.8668 53.8112L53.8856 53.9356Z" fill="#F8F8F8"/>
<path d="M61.7444 54.6146L61.7637 54.8344L60.5744 54.9394C59.9797 54.2741 59.6983 53.9401 59.647 53.3589L58.9589 53.4201L59.0843 54.8496L59.5851 54.8053L59.6044 55.025L57.5384 55.2075L57.5197 54.9878L58.0092 54.8175L57.7335 51.6755L57.2327 51.7199L57.2134 51.5002L59.2793 51.3171L59.2986 51.5369L58.8086 51.7071L58.9233 53.0112L59.6115 52.9506C59.5881 52.6834 59.837 52.2817 59.9472 52.1028L60.196 51.701C60.389 51.3885 60.5688 51.0984 61.0228 51.0576C61.0538 51.0551 61.1792 51.0439 61.3717 51.0852L61.4468 51.9386L60.5388 52.0186L60.0828 52.7558L61.7444 54.6146Z" fill="#F8F8F8"/>
<path d="M66.1409 52.9934C66.1536 53.4349 66.1927 54.8017 64.3706 54.8542L63.9933 54.8654C62.1711 54.9184 62.132 53.5516 62.1193 53.1101L62.1102 52.7951C62.0975 52.353 62.0578 50.9867 63.8805 50.9342L64.2578 50.923C66.0795 50.87 66.1191 52.2368 66.1318 52.6783L66.1409 52.9934ZM63.2477 52.9827C63.2868 54.3388 63.2904 54.4652 64.17 54.4392C65.0501 54.4137 65.0465 54.2878 65.0069 52.9317L65.0034 52.8053C64.9643 51.4491 64.9607 51.3232 64.0806 51.3487C63.201 51.3742 63.2046 51.5001 63.2437 52.8562L63.2477 52.9827Z" fill="#F8F8F8"/>
<path d="M70.4254 54.5932L70.8058 54.5132L70.9109 51.8009L70.6911 51.7923C70.6728 52.2654 70.5676 52.5453 69.7256 54.7869L68.7516 54.7487C68.0858 52.4484 68.0025 52.1614 68.0208 51.6883L67.8009 51.6796L67.6922 54.4867L68.0695 54.5009L68.0609 54.7217L66.71 54.6692L66.7187 54.4484L67.226 54.3419L67.3484 51.1876L66.8456 51.1683L66.8543 50.9475L68.8333 51.025C69.4438 53.1336 69.5271 53.4211 69.5088 53.8943L69.6977 53.9019C69.716 53.4288 69.8211 53.1484 70.593 51.0938L72.5096 51.1688L72.501 51.3895L71.9937 51.4961L71.8713 54.6498L72.3735 54.6697L72.3649 54.8904L70.4173 54.814L70.4254 54.5932Z" fill="#F8F8F8"/>
<path d="M72.703 54.7165L73.2165 54.6446L73.5517 51.5062L73.0514 51.4526L73.0748 51.2329L76.5759 51.6097L76.4586 52.7078L76.2397 52.6844L76.1417 51.9757L74.4688 51.7952L74.3368 53.0351L74.9614 53.1024C75.837 53.1972 76.8059 53.3012 76.6937 54.3525C76.5866 55.3568 75.6171 55.2523 74.7421 55.1585L72.6792 54.9362L72.703 54.7165ZM74.2936 53.4435L74.1611 54.6829L74.9112 54.7634C75.5054 54.8276 75.512 54.7644 75.5724 54.2001C75.6318 53.6454 75.6379 53.5878 75.0437 53.524L74.2936 53.4435Z" fill="#F8F8F8"/>
<path d="M77.0697 55.1846L77.5862 55.1464L78.1225 52.0395L77.6274 51.9534L77.6649 51.7362L79.707 52.0915L79.6694 52.3087L79.1529 52.347L78.772 54.5524L78.9889 54.5907C79.0585 54.1869 79.2926 53.9391 80.8517 52.2904L82.2442 52.5325L82.2066 52.7497L81.6896 52.788L81.1533 55.8943L81.6485 55.9804L81.6109 56.1976L79.5683 55.8428L79.6064 55.6256L80.1229 55.5874L80.5033 53.3819L80.287 53.3442C80.2174 53.7479 79.9833 53.9952 78.4237 55.6439L77.0317 55.4018L77.0697 55.1846Z" fill="#F8F8F8"/>
<path d="M87.1605 53.9702L86.6425 53.9707L85.8812 57.0296L86.3688 57.1514L86.3154 57.3656L84.3044 56.8614L84.3577 56.6472H84.8757L85.1916 55.3773L83.8509 55.0413L83.505 56.4331L83.9926 56.5555L83.9397 56.7696L81.9287 56.2654L81.9815 56.0513L82.4995 56.0508L83.2607 52.9919L82.7732 52.87L82.8265 52.6559L84.8376 53.1601L84.7843 53.3742L84.2663 53.3747L83.9504 54.6442L85.2911 54.9801L85.637 53.5883L85.1494 53.466L85.2022 53.2519L87.2133 53.7561L87.1605 53.9702Z" fill="#F8F8F8"/>
<path d="M86.4763 57.1759L86.8425 57.2035L88.9485 54.6901L88.9932 54.5555L88.5158 54.3969L88.5854 54.1874L90.4253 54.7971L90.6543 58.5611L90.9524 58.66L90.8834 58.8695L88.9835 58.2399L89.0526 58.0299L89.5696 58.0681L89.5295 57.4181L87.749 56.8277L87.3315 57.3258L87.2919 57.4456L87.7693 57.6037L87.7002 57.8137L86.4072 57.385L86.4763 57.1759ZM88.0313 56.4897L89.5036 56.9776C89.4203 55.6215 89.4015 55.31 89.5066 54.9909L89.208 54.8919C89.1024 55.2116 88.9028 55.4497 88.0313 56.4897Z" fill="#F8F8F8"/>
<path d="M94.8358 57.6908L94.9369 56.9832L94.0786 56.6314L92.9162 59.4935L93.3819 59.6837L93.2986 59.8886L91.3789 59.1025L91.4622 58.8981L91.9746 58.972L93.0904 56.2266L92.2321 55.8754L91.8111 56.4525L91.6069 56.3689L92.0224 55.3467L95.4549 56.7522L95.0395 57.7744L94.8358 57.6908Z" fill="#F8F8F8"/>
<path d="M78.0971 10.7974C75.3831 12.1683 72.1486 13.9063 69.0046 14.6073C69.0315 14.6532 67.543 9.14612 67.543 9.14612C67.5023 9.17722 65.4639 12.6256 63.0892 15.9282C57.6786 16.9203 53.1567 16.5742 53.1567 16.5742C55.3379 18.0842 57.5089 19.1865 59.6744 20.0537C58.1006 21.7442 51.6601 24.8036 43.9951 26.2291C67.0575 25.1212 72.2482 17.6147 78.0971 10.7974ZM60.8841 21.7559C61.6713 21.0549 62.4549 20.1867 63.2344 19.1809C61.9338 18.7419 60.6337 18.3157 59.3311 17.7855C63.923 17.5642 68.5698 16.3345 73.0333 14.1913C69.2118 17.6121 64.9712 20.7353 60.8841 21.7559Z" fill="#DBDBDB"/>
<path d="M65.3735 22.5503C67.2968 23.4486 68.9051 24.4509 70.939 26.3908C70.614 23.9961 70.2946 21.8258 69.9797 19.8483C68.6425 20.8139 67.1307 21.7234 65.3735 22.5503Z" fill="#DBDBDB"/>
<path d="M59.7529 64.889H60.8895V62.0815H60.7848L59.8275 62.3216L59.7529 62.0213L61.1881 61.6614H61.4577V64.8895H62.3846V65.1302H59.7529V64.889Z" fill="#F8F8F8"/>
<path d="M63.7719 65.0292L65.4671 63.7531L65.3778 63.6333C65.2381 63.7383 65.0385 63.8882 64.3905 63.8882H64.2712C63.0747 63.8882 63.0747 63.1679 63.0747 62.7773V62.6565C63.0747 62.2665 63.0747 61.5262 64.3905 61.5262H64.6302C65.946 61.5262 65.946 62.3267 65.946 62.8074C65.946 63.408 65.946 63.9785 65.0238 64.6688L64.3006 65.2092H63.7719V65.0292ZM65.3173 62.7172C65.3173 61.8469 65.3173 61.8469 64.5098 61.8469C63.7029 61.8469 63.7029 61.8469 63.7029 62.7172C63.7029 63.5885 63.7029 63.5885 64.4504 63.5885C65.3173 63.5885 65.3173 63.4977 65.3173 62.7172Z" fill="#F8F8F8"/>
<path d="M66.6655 64.1891V63.9183L67.2038 63.198C67.6822 62.5525 67.6822 62.1773 67.6822 61.7272V61.667H68.3404V61.7873C68.3404 62.0274 68.3404 62.1376 67.9214 62.6978L67.1439 63.7384V63.8883H68.6091V62.5373L68.9686 62.4526H69.1773V63.8883H69.6562V64.1891H69.1773V65.2092H68.6091V64.1891H66.6655Z" fill="#F8F8F8"/>
<path d="M72.5495 61.7067L70.8543 62.9823L70.9442 63.1026C71.0839 62.9976 71.283 62.8477 71.9315 62.8477H72.0508C73.2473 62.8477 73.2473 63.568 73.2473 63.9586V64.0784C73.2473 64.4689 73.2473 65.2097 71.9315 65.2097H71.6918C70.376 65.2097 70.376 64.4092 70.376 63.9285C70.376 63.3284 70.376 62.7279 71.2586 62.0671L71.9813 61.5267H72.5495V61.7067ZM71.0037 64.0187C71.0037 64.889 71.0037 64.889 71.8111 64.889C72.6186 64.889 72.6186 64.889 72.6186 64.0187C72.6186 63.148 72.6186 63.148 71.8711 63.148C71.0037 63.148 71.0037 63.2382 71.0037 64.0187Z" fill="#F8F8F8"/>
<path d="M56.2238 63.358C56.4792 63.358 56.4792 63.512 56.4792 63.6145V63.7175C56.4792 63.8199 56.4792 63.9739 56.2238 63.9739H56.0191C55.7632 63.9739 55.7632 63.8199 55.7632 63.7175V63.6145C55.7632 63.512 55.7632 63.358 56.0191 63.358H56.2238Z" fill="#F8F8F8"/>
<path d="M57.2858 63.358C57.5413 63.358 57.5413 63.512 57.5413 63.6145V63.7175C57.5413 63.8199 57.5413 63.9739 57.2858 63.9739H57.0812C56.8257 63.9739 56.8257 63.8199 56.8257 63.7175V63.6145C56.8257 63.512 56.8257 63.358 57.0812 63.358H57.2858Z" fill="#F8F8F8"/>
<path d="M58.3473 63.358C58.6028 63.358 58.6028 63.512 58.6028 63.6145V63.7175C58.6028 63.8199 58.6028 63.9739 58.3473 63.9739H58.1427C57.8872 63.9739 57.8872 63.8199 57.8872 63.7175V63.6145C57.8872 63.512 57.8872 63.358 58.1427 63.358H58.3473Z" fill="#F8F8F8"/>
<path d="M74.8576 63.358C75.113 63.358 75.113 63.512 75.113 63.6145V63.7175C75.113 63.8199 75.113 63.9739 74.8576 63.9739H74.6529C74.397 63.9739 74.397 63.8199 74.397 63.7175V63.6145C74.397 63.512 74.397 63.358 74.6529 63.358H74.8576Z" fill="#F8F8F8"/>
<path d="M75.9201 63.358C76.1755 63.358 76.1755 63.512 76.1755 63.6145V63.7175C76.1755 63.8199 76.1755 63.9739 75.9201 63.9739H75.7154C75.46 63.9739 75.46 63.8199 75.46 63.7175V63.6145C75.46 63.512 75.46 63.358 75.7154 63.358H75.9201Z" fill="#F8F8F8"/>
<path d="M76.9812 63.358C77.2366 63.358 77.2366 63.512 77.2366 63.6145V63.7175C77.2366 63.8199 77.2366 63.9739 76.9812 63.9739H76.7765C76.521 63.9739 76.521 63.8199 76.521 63.7175V63.6145C76.521 63.512 76.521 63.358 76.7765 63.358H76.9812Z" fill="#F8F8F8"/>
</svg>
