<svg width="157" height="58" viewBox="0 0 157 58" fill="none" xmlns="http://www.w3.org/2000/svg">
<path d="M20.6816 0.430542C20.8026 0.734607 21.0729 0.613328 21.2809 0.631395C25.7228 1.01651 30.1454 1.50099 34.4862 2.60858C41.2896 4.3445 47.8481 6.74441 54.1588 9.84675C54.5956 10.0615 55.0016 10.3966 55.5376 10.3396C55.6793 10.6818 55.9958 10.7881 56.2901 10.946C59.0084 12.4044 61.6423 14.0061 64.1499 15.8116C68.7667 19.1355 73.5885 22.1157 78.6396 24.711C81.8278 26.3491 85.1017 27.7791 88.5584 28.7467C88.8691 28.8337 89.27 28.8387 89.4242 29.3004C89.0883 29.4381 88.7919 29.3897 88.5045 29.3909C81.4505 29.4212 74.3965 29.4482 67.3427 29.4782C66.7801 29.4807 66.2154 29.4737 65.6553 29.5181C61.6533 29.8364 57.828 29.1696 54.1451 27.5387C50.6012 25.9695 47.4793 23.7191 44.3489 21.4758C42.6756 20.2767 41.0868 18.9584 39.3544 17.8421C36.1506 15.4216 32.8421 13.1734 29.3007 11.2748C23.2903 8.05222 17.2 5.01952 10.7519 2.78048C8.63018 2.04377 6.47937 1.41167 4.30464 0.860309C4.05668 0.797457 3.74412 0.842626 3.79081 0.430542C9.42109 0.430542 15.0514 0.430542 20.6816 0.430542Z" fill="#898989"/>
<path d="M157 44.7078C156.656 45.1475 156.469 45.6918 156.074 46.1004C155.194 47.0095 154.122 47.4692 152.876 47.4741C149.732 47.4866 146.588 47.51 143.445 47.4681C140.787 47.4326 139.219 45.813 139.157 43.1095C139.126 41.7696 139.203 40.4259 139.142 39.0882C139.024 36.5013 140.881 35.2156 142.578 34.8316C143.129 34.7068 143.686 34.6627 144.252 34.6641C146.933 34.6711 149.614 34.7045 152.294 34.6548C154.349 34.6167 155.888 35.3697 156.782 37.2996C156.826 37.3937 156.887 37.463 157 37.4625C157 39.8776 157 42.2927 157 44.7078ZM153.715 38.108C149.966 38.108 146.256 38.108 142.543 38.108C142.543 40.173 142.543 42.1667 142.543 44.1888C146.286 44.1888 149.97 44.1888 153.715 44.1888C153.715 42.1346 153.715 40.1444 153.715 38.108Z" fill="#898989"/>
<path d="M111.891 57.9911C111.606 57.6465 111.225 57.4235 110.877 57.1554C109.7 56.2463 109.197 54.6199 109.639 53.1973C110.105 51.7 111.306 50.7667 112.876 50.696C114.048 50.6434 115.104 50.9087 115.908 51.8867C115.806 52.3176 115.448 52.5114 115.168 52.7677C113.29 51.6151 111.882 51.7327 111.092 53.0939C110.466 54.1717 110.818 55.57 111.889 56.26C112.938 56.9359 114.255 56.6538 114.881 55.6106C114.666 55.2968 114.344 55.472 114.072 55.4408C113.782 55.4077 113.489 55.4041 113.172 55.3861C113.058 54.9903 113.076 54.6433 113.148 54.2596C114.275 54.2596 115.349 54.2596 116.416 54.2596C116.544 55.7377 115.843 56.9979 114.629 57.5933C114.376 57.7173 114.025 57.662 113.879 57.991C113.216 57.9911 112.554 57.9911 111.891 57.9911Z" fill="#898989"/>
<path d="M41.3466 57.9909C41.2067 57.6158 40.8151 57.6353 40.5405 57.4817C39.0804 56.6647 38.3631 54.9759 38.7847 53.2815C39.177 51.7045 40.6727 50.6195 42.3563 50.6906C43.9963 50.7598 45.3287 51.9548 45.6448 53.6401C45.9495 55.2643 45.0906 56.9051 43.5991 57.6057C43.3139 57.7397 42.9343 57.6603 42.7377 57.9909C42.274 57.9909 41.8103 57.9909 41.3466 57.9909ZM44.3795 54.2406C44.3681 52.935 43.3838 51.9304 42.1386 51.9533C40.8811 51.9765 39.9569 52.9822 39.9662 54.317C39.9753 55.6278 40.9336 56.5969 42.2171 56.5933C43.4714 56.5896 44.3912 55.5888 44.3795 54.2406Z" fill="#898989"/>
<path d="M124.609 57.9911C124.675 57.7666 124.371 57.6684 124.471 57.4579C125.491 55.3484 126.162 53.0842 127.088 50.9193C127.51 50.7386 127.925 50.7819 128.426 50.8737C129.265 53.0866 130.111 55.3172 130.983 57.6151C130.53 57.8205 130.126 57.7418 129.696 57.6947C129.506 57.2516 129.325 56.8293 129.134 56.3831C128.236 56.2678 127.354 56.3153 126.436 56.3498C126.155 56.9031 125.878 57.4471 125.602 57.9911C125.27 57.9911 124.94 57.9911 124.609 57.9911ZM126.909 54.9258C127.545 55.0184 128.042 55.0642 128.592 54.903C128.329 54.1797 128.15 53.4916 127.716 52.7902C127.435 53.5344 127.195 54.17 126.909 54.9258Z" fill="#898989"/>
<path d="M23.2651 57.991C23.2434 57.4135 22.9046 56.9536 22.7483 56.4042C21.8287 56.2302 20.9429 56.3584 20.0975 56.3206C19.6479 56.6968 19.682 57.2779 19.322 57.6934C18.9673 57.7862 18.5809 57.7348 18.0576 57.7098C18.9481 55.3601 19.805 53.0991 20.6503 50.8683C21.1305 50.7682 21.5184 50.8043 21.9826 50.8438C22.7046 52.7533 23.4128 54.6555 24.1468 56.5472C24.3296 57.018 24.4834 57.4809 24.4573 57.991C24.0599 57.991 23.6625 57.991 23.2651 57.991ZM21.3351 52.664C21.0023 53.5372 20.7475 54.2053 20.4759 54.9176C21.056 55.0355 21.5584 55.0521 22.091 54.9107C21.9915 54.1757 21.6464 53.5663 21.3351 52.664Z" fill="#898989"/>
<path d="M53.071 57.9912C52.8694 57.6266 52.9083 57.2273 52.9083 56.8337C52.9081 55.3031 52.9082 53.7724 52.9082 52.3009C52.5176 52.0348 52.1609 52.218 51.8325 52.0655C51.5815 51.7173 51.7612 51.3207 51.7142 50.8678C52.9751 50.8678 54.1762 50.8678 55.3822 50.8678C55.5292 51.2609 55.4456 51.624 55.4498 51.9676C55.118 52.2753 54.7159 52.0343 54.2524 52.2523C54.2524 53.406 54.2536 54.6325 54.2519 55.8589C54.251 56.575 54.3061 57.2966 54.0645 57.9912C53.7332 57.9912 53.4021 57.9912 53.071 57.9912Z" fill="#898989"/>
<path d="M124.508 28.449C124.452 28.7861 124.723 28.9131 124.934 29.1076C124.865 29.1735 124.803 29.2339 124.74 29.2944C123.52 29.2996 122.301 29.2636 121.079 29.2762C115.39 29.3347 109.699 29.3158 104.01 29.3788C100.763 29.4148 97.5454 29.3011 94.3444 28.6393C91.1915 27.9875 88.1296 27.1129 85.2064 25.7319C80.446 23.4831 75.6876 21.2329 71.2077 18.4351C69.7838 17.5459 68.3555 16.6578 66.9731 15.5262C67.2761 15.325 67.479 15.1597 67.7065 15.0437C72.7513 12.4706 77.8932 10.118 83.1767 8.08969C83.4607 7.98071 83.7452 7.8891 83.8186 7.53705C84.4421 7.69638 84.9911 7.4134 85.5421 7.21011C89.8573 5.61784 94.2442 4.2869 98.7472 3.34818C101.35 2.80571 103.983 2.61908 106.625 2.50062C110.556 2.32437 114.49 2.17445 118.422 2.01743C123.116 1.83003 127.809 1.64494 132.502 1.46472C133.029 1.44446 133.559 1.46196 134.103 1.56217C132.254 1.92229 130.401 2.2644 128.557 2.64568C120.254 4.36179 112.344 7.18704 104.893 11.2946C104.633 11.4376 104.348 11.5445 104.163 11.7994C104.014 11.8678 103.859 11.926 103.716 12.0059C99.5713 14.3245 95.7148 17.0704 92.0452 20.0932C91.2191 20.7735 90.4843 21.5363 89.9416 22.471C89.2289 23.6989 89.4612 24.7928 90.6103 25.6148C91.2084 26.0426 91.8757 26.3272 92.5685 26.5621C94.3882 27.1792 96.2513 27.6006 98.1391 27.9467C102.981 28.8342 107.787 28.869 112.575 27.5699C114.527 27.0404 116.529 26.7763 118.558 26.8397C119.661 26.8741 120.672 27.0811 121.58 27.8645C122.307 28.4894 123.315 28.6224 124.271 28.717C124.424 28.7322 124.483 28.5888 124.508 28.449Z" fill="#898989"/>
<path d="M83.8179 7.53715C83.7445 7.8892 83.4599 7.98081 83.1762 8.08979C77.8924 10.1181 72.7506 12.4707 67.7058 15.0437C67.4783 15.1597 67.2754 15.325 66.9724 15.5263C68.3547 16.6578 69.7831 17.5459 71.2071 18.4353C75.6869 21.2329 80.4453 23.4831 85.2056 25.732C88.1288 27.1129 91.1908 27.9875 94.3438 28.6393C97.5446 29.3011 100.763 29.4149 104.01 29.3789C109.699 29.3158 115.389 29.3348 121.078 29.2763C122.299 29.2638 123.518 29.2998 124.739 29.2944C125.141 29.7605 125.003 30.3714 125.341 31.0268C93.4123 31.0268 61.6648 31.0268 29.9146 31.0268C30.0775 27.0571 34.3986 21.1085 39.3534 17.842C41.0856 18.9582 42.6745 20.2767 44.3479 21.4757C47.4783 23.719 50.6002 25.9694 54.1441 27.5386C57.827 29.1695 61.6523 29.8363 65.6543 29.518C66.2144 29.4735 66.779 29.4804 67.3417 29.4781C74.3957 29.448 81.4496 29.4211 88.5035 29.3908C88.7909 29.3895 89.0873 29.4379 89.4232 29.3002C89.2691 28.8385 88.8681 28.8335 88.5574 28.7466C85.1007 27.779 81.8268 26.3491 78.6385 24.7109C73.5875 22.1156 68.7657 19.1354 64.1489 15.8115C61.6413 14.006 59.0074 12.4042 56.2891 10.9459C55.9948 10.788 55.6784 10.6817 55.5366 10.3395C56.0916 9.94051 56.7628 9.87062 57.3917 9.7107C62.2043 8.48675 67.0901 7.75645 72.0433 7.42535C75.3469 7.20451 78.6469 7.2507 81.9494 7.32957C82.5736 7.34456 83.1952 7.46527 83.8179 7.53715Z" fill="#DBDBDB"/>
<path d="M124.507 28.4491C124.483 28.5889 124.424 28.7324 124.27 28.7171C123.313 28.6225 122.306 28.4895 121.58 27.8647C120.671 27.0812 119.66 26.8743 118.557 26.8398C116.528 26.7764 114.526 27.0406 112.574 27.5701C107.786 28.8692 102.98 28.8344 98.1383 27.9468C96.2505 27.6008 94.3875 27.1794 92.5677 26.5623C91.875 26.3274 91.2076 26.0427 90.6095 25.6149C89.4603 24.793 89.2281 23.6991 89.9409 22.4711C90.4836 21.5364 91.2184 20.7737 92.0444 20.0933C95.714 17.0706 99.5705 14.3248 103.716 12.0061C103.858 11.9262 104.013 11.8679 104.162 11.7996C109.944 13.8966 115.261 16.8009 119.681 21.1874C121.769 23.2597 123.5 25.6186 124.507 28.4491Z" fill="#DBDBDB"/>
<path d="M119.053 47.4353C119.053 43.1832 119.053 38.972 119.053 34.7838C119.312 34.5534 119.588 34.6415 119.841 34.6411C124.043 34.6358 128.245 34.6393 132.447 34.6385C133.043 34.6383 133.63 34.6843 134.213 34.8316C136.482 35.403 137.635 37.375 137.03 39.6655C136.909 40.1201 136.711 40.5412 136.488 40.9574C136.591 41.1602 136.673 41.3408 136.77 41.5126C137.815 43.3614 137.538 45.0661 135.955 46.428C135.175 47.0983 134.267 47.5076 133.243 47.511C128.611 47.5263 123.978 47.5147 119.347 47.5105C119.285 47.5104 119.223 47.48 119.053 47.4353ZM122.465 39.3165C126.265 39.3165 129.978 39.3165 133.7 39.3165C133.771 38.8274 133.806 38.4053 133.675 37.9455C129.94 37.9455 126.227 37.9455 122.494 37.9455C122.355 38.4086 122.392 38.8304 122.465 39.3165ZM122.478 44.0868C126.26 44.0868 129.979 44.0868 133.722 44.0868C133.762 43.5908 133.814 43.1703 133.683 42.7651C129.904 42.7651 126.181 42.7651 122.459 42.7651C122.396 43.2284 122.371 43.6228 122.478 44.0868Z" fill="#898989"/>
<path d="M58.7883 47.4327C58.7883 44.4847 58.7391 41.6027 58.8044 38.7234C58.8539 36.5475 60.5253 34.7612 62.7517 34.713C67.2821 34.6147 71.8163 34.6914 76.3489 34.6988C76.3746 34.6988 76.4001 34.7379 76.4947 34.815C76.6036 35.8122 76.5268 36.8712 76.5444 38.0451C71.7183 38.0451 66.9413 38.0451 62.1339 38.0451C62.0198 38.5747 62.0321 38.99 62.0974 39.3763C62.4513 39.6216 62.7912 39.5251 63.1115 39.5258C66.255 39.5329 69.3985 39.5288 72.5421 39.53C73.6531 39.5305 74.7099 39.72 75.6405 40.3988C77.693 41.896 77.8136 44.8177 75.8676 46.4554C75.0853 47.1137 74.1783 47.5243 73.1478 47.5268C68.4823 47.538 63.8167 47.5312 59.1512 47.5269C59.0587 47.5268 58.9663 47.4804 58.7883 47.4327ZM74.1379 42.6199C70.0767 42.6199 66.0964 42.6199 62.093 42.6199C62.0802 43.1483 61.9552 43.6084 62.1686 44.0209C66.1956 44.0209 70.1763 44.0209 74.2258 44.0209C74.1875 43.5278 74.2756 43.1024 74.1379 42.6199Z" fill="#898989"/>
<path d="M108.347 47.4813C106.826 47.4813 105.305 47.476 103.783 47.4825C100.564 47.4963 99.2432 45.204 99.3464 42.9816C99.4115 41.5778 99.3874 40.1678 99.352 38.7617C99.3142 37.2577 100.024 36.2194 101.225 35.4557C102.058 34.9256 102.986 34.6817 103.958 34.6761C107 34.6588 110.044 34.6416 113.086 34.6772C115.491 34.7055 117.235 36.5281 117.266 38.9759C117.284 40.349 117.194 41.7278 117.288 43.0947C117.454 45.5071 115.46 47.4898 113.011 47.4794C111.456 47.4727 109.902 47.4782 108.347 47.4782C108.347 47.4793 108.347 47.4803 108.347 47.4813ZM102.73 44.1886C106.471 44.1886 110.154 44.1886 113.857 44.1886C113.857 42.1257 113.857 40.1311 113.857 38.1017C110.121 38.1017 106.44 38.1017 102.73 38.1017C102.73 40.1582 102.73 42.1499 102.73 44.1886Z" fill="#898989"/>
<path d="M82.4246 42.7296C82.4246 44.3913 82.4246 45.8918 82.4246 47.4593C81.2849 47.5844 80.2057 47.4952 79.0454 47.5258C79.0454 43.2404 79.0454 39.008 79.0454 34.7627C79.2628 34.5572 79.541 34.6423 79.7935 34.6419C84.1629 34.6357 88.5324 34.6411 92.9019 34.6321C93.7092 34.6305 94.4819 34.7677 95.2141 35.1037C96.9263 35.8893 97.848 37.5577 97.5609 39.3267C97.2727 41.1024 95.6767 42.592 93.854 42.6924C92.5997 42.7614 91.3393 42.726 90.0817 42.7283C87.897 42.7324 85.7122 42.7296 83.5275 42.7296C83.2029 42.7296 82.8784 42.7296 82.4246 42.7296ZM82.494 39.4604C86.4475 39.4604 90.3009 39.4604 94.1909 39.4604C94.2171 38.9076 94.3029 38.4229 94.1336 37.9632C90.2172 37.9632 86.3618 37.9632 82.5026 37.9632C82.4039 38.4869 82.4082 38.9447 82.494 39.4604Z" fill="#898989"/>
<path d="M22.9254 42.7294C22.9254 44.376 22.9254 45.8781 22.9254 47.4526C21.7928 47.4526 20.7171 47.4526 19.5698 47.4526C19.5698 43.2313 19.5698 38.9959 19.5698 34.7579C19.8056 34.5589 20.0817 34.6427 20.335 34.6423C24.6716 34.6365 29.0083 34.6427 33.3448 34.6347C34.2535 34.633 35.1201 34.7802 35.9319 35.2076C37.5952 36.0834 38.4113 37.7178 38.0432 39.4401C37.6602 41.2327 36.1415 42.6445 34.3586 42.6903C31.745 42.7575 29.1288 42.7225 26.5138 42.729C25.36 42.7319 24.2061 42.7294 22.9254 42.7294ZM22.9913 39.4488C26.9256 39.4488 30.8277 39.4488 34.7769 39.4488C34.7542 38.9106 34.8374 38.4515 34.7098 37.9763C30.7779 37.9763 26.8739 37.9763 22.9015 37.9763C22.9603 38.5116 22.8442 38.9725 22.9913 39.4488Z" fill="#898989"/>
<path d="M56.1661 47.4836C54.9864 47.4836 53.8053 47.4836 52.5353 47.4836C51.8616 46.3981 51.1623 45.2712 50.4712 44.1576C48.2028 44.1576 45.9889 44.1576 43.7057 44.1576C43.0888 45.2448 42.4656 46.3431 41.8224 47.477C40.5733 47.477 39.3225 47.477 38.0672 47.477C37.971 47.1687 38.2035 46.9791 38.325 46.7584C40.128 43.4808 41.9324 40.204 43.7472 36.9332C44.0877 36.3195 44.4809 35.7426 45.0572 35.3128C46.5877 34.1709 48.6971 34.4557 49.8175 35.9977C50.2082 36.5354 50.5456 37.1166 50.8705 37.699C52.5626 40.7321 54.2437 43.7715 55.9259 46.8102C56.0354 47.0079 56.2103 47.1844 56.1661 47.4836ZM48.684 40.8171C48.144 39.8891 47.709 39.0271 47.0655 38.142C46.5499 39.1319 45.9488 39.8816 45.5794 40.8171C46.6091 40.8171 47.577 40.8171 48.684 40.8171Z" fill="#898989"/>
<path d="M12.2826 41.1053C14.1207 43.2472 15.8761 45.2924 17.7247 47.4464C16.3733 47.4464 15.1485 47.4464 13.7755 47.4464C12.2075 45.6948 10.3952 43.9874 8.8277 42.0402C7.44483 43.9026 5.90995 45.6571 4.41834 47.481C3.06015 47.481 1.71257 47.481 0.201981 47.481C2.04473 45.298 3.81607 43.1995 5.6294 41.0513C3.76224 38.9513 1.9308 36.8915 0 34.7198C1.47966 34.7198 2.83419 34.7198 4.28878 34.7198C5.77053 36.4841 7.31028 38.3173 8.8344 40.132C10.2662 38.2187 11.9506 36.5134 13.4507 34.6876C14.8441 34.6876 16.1812 34.6876 17.6579 34.6876C15.8274 36.8733 14.0812 38.958 12.2826 41.1053Z" fill="#898989"/>
<path d="M101.959 50.8987C102.341 50.7404 102.669 50.8264 103.085 50.797C103.967 52.1633 104.863 53.5499 105.758 54.9365C105.825 54.928 105.892 54.9195 105.959 54.911C105.959 53.5861 105.959 52.2613 105.959 51.0195C106.439 50.7136 106.799 50.8123 107.236 50.8424C107.236 53.0946 107.236 55.3464 107.236 57.6273C106.926 57.86 106.557 57.6862 106.166 57.7568C105.104 56.3969 104.327 54.8491 103.157 53.275C103.157 54.8864 103.157 56.2628 103.157 57.6421C102.714 57.775 102.369 57.7781 101.959 57.6545C101.959 55.4188 101.959 53.1926 101.959 50.8987Z" fill="#898989"/>
<path d="M95.75 57.7125C95.3233 57.7125 94.9958 57.7125 94.61 57.7125C93.6967 56.3105 92.7776 54.8998 91.8583 53.4889C91.803 53.5066 91.7476 53.5242 91.6923 53.5419C91.6923 54.8893 91.6923 56.2367 91.6923 57.46C91.4652 57.7773 91.2562 57.7413 91.0626 57.7421C90.8998 57.7429 90.7369 57.7244 90.4927 57.7094C90.4927 55.4375 90.4927 53.1826 90.4927 50.9087C90.8242 50.7047 91.1858 50.8267 91.6264 50.8321C92.5242 52.2164 93.4451 53.6365 94.366 55.0564C94.4196 55.0478 94.4733 55.0392 94.5269 55.0306C94.5269 53.665 94.5269 52.2992 94.5269 50.9913C94.9752 50.72 95.3257 50.7905 95.7499 50.8742C95.75 53.129 95.75 55.3832 95.75 57.7125Z" fill="#898989"/>
<path d="M133.005 57.7133C133.005 55.3521 133.005 53.1216 133.005 50.8471C134.084 50.7363 135.106 50.7596 136.101 50.9969C137.732 51.3856 138.69 53.3861 138.214 55.2963C137.846 56.7703 137.014 57.4919 135.522 57.6574C134.704 57.7482 133.887 57.7632 133.005 57.7133ZM134.26 56.3943C135.262 56.3881 136.227 56.5792 136.717 55.5556C137.141 54.6707 137.169 53.7279 136.594 52.8917C136.032 52.0747 135.182 52.0514 134.26 52.1925C134.26 53.5887 134.26 54.943 134.26 56.3943Z" fill="#898989"/>
<path d="M48.306 57.6578C47.8333 57.7713 47.5091 57.7703 47.0043 57.6516C46.9821 55.4413 46.9943 53.1939 46.9921 50.89C48.0045 50.7075 48.9264 50.7512 49.8111 50.9972C51.0602 51.3445 51.4635 53.1654 50.5406 54.1367C50.3398 54.348 50.0894 54.511 49.8153 54.7342C50.3048 55.6907 50.7867 56.6326 51.3056 57.6471C50.8135 57.8024 50.4052 57.7457 49.9522 57.7017C49.4543 56.7771 48.956 55.8515 48.4577 54.926C48.4071 54.939 48.3564 54.9522 48.3058 54.9652C48.306 55.8492 48.306 56.7333 48.306 57.6578ZM49.5911 52.3387C49.2321 52.0789 48.8256 52.1121 48.369 52.1896C48.272 52.6209 48.2897 53.0308 48.3521 53.4642C48.8558 53.5753 49.2791 53.5402 49.6409 53.229C49.7626 52.953 49.7822 52.7017 49.5911 52.3387Z" fill="#898989"/>
<path d="M32.6441 57.7105C32.0842 57.7105 31.6925 57.7105 31.2595 57.7105C30.7768 56.8046 30.2983 55.9069 29.8199 55.0092C29.7602 55.0257 29.7005 55.0421 29.6409 55.0584C29.6409 55.9042 29.6409 56.7501 29.6409 57.5871C29.1896 57.8069 28.8139 57.7639 28.3638 57.6468C28.3638 55.4112 28.3638 53.1843 28.3638 50.9025C29.3281 50.6822 30.289 50.7409 31.1961 51.0235C32.4273 51.4073 32.7357 53.2575 31.788 54.2063C31.6012 54.3932 31.3123 54.4532 31.1517 54.7902C31.6102 55.6874 32.092 56.6301 32.6441 57.7105ZM29.6605 53.4981C30.2016 53.5411 30.6297 53.5585 30.9583 53.2042C31.0962 52.8965 31.1012 52.6131 30.861 52.3225C30.5022 52.0756 30.0992 52.1062 29.6605 52.1947C29.6605 52.6481 29.6605 53.0384 29.6605 53.4981Z" fill="#898989"/>
<path d="M121.565 54.6832C121.822 55.7624 122.634 56.5725 122.972 57.6679C122.552 57.7817 122.169 57.7478 121.74 57.7299C121.115 56.8842 120.764 55.8634 120.065 54.7755C120.065 55.8538 120.065 56.7221 120.065 57.5703C119.602 57.8142 119.226 57.7694 118.772 57.6402C118.772 55.4131 118.772 53.1878 118.772 50.8994C119.725 50.6867 120.685 50.7507 121.59 51.0283C122.792 51.3972 123.141 53.1764 122.25 54.119C122.048 54.3336 121.794 54.4975 121.565 54.6832ZM120.069 52.1857C120.037 52.6797 119.932 53.1016 120.145 53.5018C120.613 53.5569 121.031 53.5385 121.367 53.2071C121.493 52.8998 121.512 52.6154 121.287 52.3439C120.948 52.0723 120.556 52.1233 120.069 52.1857Z" fill="#898989"/>
<path d="M79.7909 57.6274C79.2733 57.7878 78.9482 57.7392 78.6022 57.6996C78.2002 57.3736 78.2481 56.7846 77.9015 56.3757C77.0302 56.2648 76.147 56.3259 75.2814 56.3403C74.9258 56.724 74.8833 57.2205 74.6189 57.6491C74.236 57.7962 73.8291 57.7734 73.3232 57.6418C74.1887 55.3593 75.0354 53.1261 75.8646 50.9391C76.317 50.7193 76.7097 50.8104 77.2209 50.8432C78.0601 53.0585 78.9145 55.3139 79.7909 57.6274ZM76.564 52.6852C76.2325 53.5708 75.9851 54.2326 75.7141 54.9565C76.3273 54.9982 76.829 55.0766 77.3555 54.8982C77.2061 54.1407 76.8789 53.5254 76.564 52.6852Z" fill="#898989"/>
<path d="M69.4364 53.9344C70.2608 55.1547 71.0755 56.3606 71.9502 57.6553C71.431 57.7982 71.0181 57.7352 70.5673 57.7348C69.7731 56.9068 69.2674 55.8386 68.4066 54.7863C68.4066 55.8398 68.4066 56.7355 68.4066 57.6573C67.9135 57.7655 67.5398 57.793 67.105 57.6344C67.105 55.3959 67.105 53.1733 67.105 51.0014C67.2977 50.7658 67.508 50.8032 67.7 50.8055C67.8915 50.8078 68.0971 50.7518 68.345 50.952C68.345 51.5465 68.345 52.2022 68.345 53.0134C69.2039 52.3511 69.5689 51.4521 70.2716 50.8366C70.6752 50.787 71.0927 50.7657 71.6139 50.8858C71.0085 51.9917 70.1345 52.8147 69.4364 53.9344Z" fill="#898989"/>
<path d="M34.9359 57.6574C34.4996 57.7886 34.1506 57.7546 33.7393 57.6715C33.7393 55.4073 33.7393 53.179 33.7393 50.9005C34.6954 50.684 35.6174 50.7752 36.5031 51.004C37.2933 51.2083 37.6432 51.8745 37.7215 52.6706C37.8034 53.5028 37.3999 54.1818 36.67 54.5553C36.1768 54.8078 35.6399 54.7447 35.0802 54.8207C34.8718 55.7453 35.0923 56.6882 34.9359 57.6574ZM35.0273 52.1949C34.9996 52.6813 34.9078 53.098 35.1048 53.4965C35.5578 53.5618 35.969 53.5603 36.3107 53.2532C36.4768 52.9186 36.4847 52.6146 36.2272 52.3279C35.8815 52.0906 35.5009 52.1156 35.0273 52.1949Z" fill="#898989"/>
<path d="M84.8079 56.4833C84.9403 56.9439 84.9211 57.2969 84.82 57.6926C83.8097 57.7682 82.8342 57.7768 81.792 57.6934C81.792 55.4259 81.792 53.1989 81.792 50.9344C82.1292 50.6886 82.5239 50.8572 83.0204 50.786C83.0204 52.6773 83.0204 54.4964 83.0204 56.3863C83.6733 56.4217 84.2179 56.4513 84.8079 56.4833Z" fill="#898989"/>
<path d="M25.5391 50.9172C25.9241 50.7335 26.2785 50.7929 26.7157 50.8612C26.7157 53.1011 26.7157 55.3471 26.7157 57.6342C26.3598 57.8148 25.9839 57.7644 25.5391 57.6617C25.5391 55.4056 25.5391 53.1591 25.5391 50.9172Z" fill="#898989"/>
<path d="M98.2515 50.9179C98.6607 50.7304 99.0154 50.8195 99.4436 50.8308C99.4436 53.1118 99.4436 55.3591 99.4436 57.659C99.0567 57.7832 98.6841 57.7688 98.2515 57.6686C98.2515 55.4148 98.2515 53.1913 98.2515 50.9179Z" fill="#898989"/>
<path d="M87.9491 57.6568C87.5543 57.7839 87.2034 57.7749 86.7832 57.6636C86.7832 55.4225 86.7832 53.1737 86.7832 50.9325C87.1502 50.6955 87.5125 50.8542 87.9491 50.8001C87.9491 53.0921 87.9491 55.3388 87.9491 57.6568Z" fill="#898989"/>
<path d="M60.4342 55.055C60.3919 54.8287 60.601 54.6976 60.6282 54.5047C60.5344 54.257 60.0715 54.4134 60.1141 54.0257C60.282 53.6849 60.5303 54.0168 60.7263 53.9374C60.9696 53.8057 60.7369 53.4752 61.0405 53.2968C61.3086 53.5465 61.4463 54.0812 61.962 53.9036C62.0563 54.3157 61.7436 54.3082 61.581 54.434C61.4562 54.6828 61.9035 54.8669 61.6971 55.1132C61.367 55.258 61.3015 54.8979 61.0338 54.8547C60.8437 54.8327 60.7554 55.3539 60.4342 55.055Z" fill="#898989"/>
</svg>
