<svg width="20" height="20" viewBox="0 0 20 20" fill="none" xmlns="http://www.w3.org/2000/svg">
<path d="M16.3481 19.4997H14.01V12.681H16.4319H16.9088L16.9313 12.2046L17.0644 9.38959L17.0892 8.86597H16.565H14.01V7.31035C14.01 6.92383 14.0594 6.77268 14.1119 6.70569C14.1391 6.67085 14.2407 6.56659 14.6875 6.56659C15.155 6.56659 15.6031 6.56862 15.9345 6.57065C16.1001 6.57166 16.2365 6.57267 16.3315 6.57343L16.4412 6.57435L16.4699 6.5746L16.4772 6.57467L16.4791 6.57469L16.4795 6.57469L16.4796 6.57469H16.4797L16.9718 6.57934L16.9842 6.08731L17.0505 3.45855L17.0618 3.00812L16.615 2.95012L16.5506 3.44595L16.6149 2.9501L16.6148 2.95009L16.6145 2.95005L16.6137 2.94995L16.6112 2.94963L16.6025 2.94854L16.571 2.94472C16.5438 2.9415 16.5044 2.937 16.4539 2.93165C16.3529 2.92094 16.2072 2.90683 16.0256 2.89276C15.6626 2.86465 15.154 2.83657 14.5688 2.83657C13.0556 2.83657 11.908 3.3059 11.1387 4.09006C10.3737 4.86997 10.0331 5.91038 10.0331 6.96095V8.86595H8.46564H7.96564V9.36595V12.181V12.681H8.46564H10.0331V19.4997H3.65188C1.90504 19.4997 0.5 18.0947 0.5 16.3478V3.65157C0.5 1.90855 1.89892 0.505823 3.64046 0.499715H3.65186H16.3481C18.095 0.499715 19.5 1.90476 19.5 3.65159V16.3479C19.5 18.0947 18.095 19.4997 16.3481 19.4997Z" stroke="white"/>
</svg>
