<svg width="20" height="20" viewBox="0 0 20 20" fill="none" xmlns="http://www.w3.org/2000/svg">
<path d="M16.1453 14.7672L16.1454 14.7666C16.4143 14.7662 16.751 14.699 16.975 14.4293C17.2152 14.1401 17.1969 13.781 17.0968 13.4906C17.0055 13.2033 16.8124 12.8995 16.5955 12.6068C16.3697 12.3022 16.0839 11.9653 15.7719 11.6109C15.5873 11.3962 15.3614 11.1742 15.1767 10.9927L15.1756 10.9917C14.9697 10.7894 14.8426 10.6625 14.7946 10.5973L14.7946 10.5973L14.7925 10.5945C14.7873 10.5876 14.7826 10.5812 14.7784 10.5753C14.7877 10.5592 14.7983 10.5413 14.8111 10.5201L14.8212 10.5057L14.8792 10.4228C14.9291 10.3513 15.0003 10.2484 15.0862 10.1225C15.2579 9.87086 15.4893 9.52573 15.7269 9.15301C15.9638 8.78133 16.2104 8.37688 16.4109 8.00775C16.5976 7.66402 16.7725 7.30109 16.8391 7.01463C16.9008 6.80519 16.9405 6.4909 16.7467 6.21452C16.5407 5.92066 16.1997 5.85032 15.919 5.85032H14.464C14.1836 5.85032 13.9403 5.92824 13.7435 6.07702C13.5541 6.22019 13.4435 6.40207 13.3748 6.5513L13.3708 6.56003L13.3672 6.56875L13.3672 6.56876L13.3672 6.56881L13.3671 6.56891L13.367 6.56926L13.3657 6.57219L13.3601 6.58553C13.355 6.59768 13.347 6.61623 13.3364 6.6406C13.3152 6.68935 13.2833 6.76127 13.2416 6.85164C13.1582 7.03259 13.0361 7.28643 12.8825 7.57565C12.574 8.15632 12.151 8.85517 11.6714 9.39589C11.6585 9.40876 11.646 9.4211 11.634 9.43294V6.87157C11.634 6.65959 11.6056 6.3869 11.4359 6.16462C11.2409 5.90925 10.9569 5.83782 10.7109 5.83782H8.42277C7.91877 5.83782 7.5584 6.23455 7.5584 6.67657C7.5584 6.9042 7.6484 7.07408 7.72757 7.19015C7.7641 7.24369 7.80426 7.29411 7.83406 7.33152L7.83498 7.33267L7.83826 7.33679C7.86981 7.37639 7.89545 7.40858 7.92107 7.44386C8.00635 7.56131 8.11108 7.73632 8.13465 8.11691V10.0113C7.99609 9.847 7.83775 9.62815 7.66895 9.36089C7.23902 8.6802 6.77602 7.741 6.42836 6.7373L6.42841 6.73728L6.42582 6.73013C6.35059 6.52317 6.247 6.28319 6.05432 6.10481C5.83554 5.90228 5.57146 5.83782 5.30465 5.83782H3.84965C3.57417 5.83782 3.29178 5.90471 3.08832 6.11965C2.88834 6.33092 2.8584 6.58769 2.8584 6.74782C2.8584 6.91585 2.90451 7.16186 2.98147 7.44422C3.06223 7.74053 3.18768 8.115 3.36955 8.5538C3.73327 9.43134 4.32631 10.575 5.25015 11.8754C6.52119 13.7143 8.37025 14.7547 10.1065 14.7547C10.5729 14.7547 10.9739 14.7093 11.2555 14.5201C11.6158 14.2781 11.6484 13.9107 11.6484 13.6916V12.4174C11.7939 12.4798 12.0926 12.6606 12.6327 13.1836C12.8703 13.4245 13.0593 13.6319 13.22 13.8106C13.2434 13.8367 13.2666 13.8625 13.2895 13.888C13.4197 14.0331 13.5402 14.1675 13.6505 14.2776C13.7819 14.4087 13.9277 14.5358 14.1027 14.6269C14.2883 14.7235 14.4822 14.7672 14.6934 14.7672H16.1453ZM8.44736 10.3099C8.4499 10.3109 8.4512 10.3116 8.45122 10.3117C8.45123 10.3117 8.44996 10.3112 8.44736 10.3099ZM6.92965 0.499695H13.069C15.8722 0.499695 17.4036 0.845787 18.2771 1.7179C19.1504 2.5898 19.4996 4.12097 19.4996 6.93032V13.0697C19.4996 15.8799 19.1534 17.4107 18.2817 18.2824C17.41 19.1541 15.8792 19.5003 13.069 19.5003H6.92965C4.11949 19.5003 2.58865 19.1541 1.71695 18.2824C0.845254 17.4107 0.499023 15.8799 0.499023 13.0697V6.93032C0.499023 4.12016 0.845254 2.58932 1.71695 1.71762C2.58865 0.845925 4.11949 0.499695 6.92965 0.499695Z" stroke="white"/>
</svg>
